PathFileType	4	(X/Y/Z)	Trials_Joints_Gait_markers_cropped.trc
DataRate	CameraRate	NumFrames	NumMarkers	Units	OrigDataRate	OrigDataStartFrame	OrigNumFrames
200	200	7	27	m	200	88	707
Frame#	Time	R_ASIS			L_ASIS			Sacral			L_Thigh_Superior			L_Thigh_Posterior			L_Thigh_Inferior			L_Thigh_Lateral			L_Shank_Posterior			L_Shank_Superior			L_Shank_Lateral			L_Shank_Inferior			L_Midfoot_Superior			L_Heel			L_Midfoot_Lateral			L_Toe			R_Thigh_Posterior			R_Thigh_Superior			R_Thigh_Lateral			R_Thigh_Inferior			R_Shank_Posterior			R_Shank_Superior			R_Shank_Lateral			R_Shank_Inferior			R_Midfoot_Superior			R_Heel			R_Midfoot_Lateral			R_Toe
		X1	Y1	Z1	X2	Y2	Z2	X3	Y3	Z3	X4	Y4	Z4	X5	Y5	Z5	X6	Y6	Z6	X7	Y7	Z7	X8	Y8	Z8	X9	Y9	Z9	X10	Y10	Z10	X11	Y11	Z11	X12	Y12	Z12	X13	Y13	Z13	X14	Y14	Z14	X15	Y15	Z15	X16	Y16	Z16	X17	Y17	Z17	X18	Y18	Z18	X19	Y19	Z19	X20	Y20	Z20	X21	Y21	Z21	X22	Y22	Z22	X23	Y23	Z23	X24	Y24	Z24	X25	Y25	Z25	X26	Y26	Z26	X27	Y27	Z27

89	   0.440	    1.08366912180863	    0.98635423405497	    0.54235985038637	    1.20335503392664	    0.97835774614361	    0.31614073495286	    0.95612967656612	    1.00325301822390	    0.34568269831389	    1.20525019669978	    0.72964853476691	    0.26414790927160	    1.13363139346878	    0.71555243245413	    0.24620979875312	    1.21140421042913	    0.63912057473405	    0.29276546342197	    1.13529337927996	    0.62933775453151	    0.27115212572073	    1.07411605735029	    0.36555058109594	    0.30705149785670	    1.14491472412176	    0.34300638828311	    0.32158182874956	    1.06491630420709	    0.29494315127246	    0.31196024878935	    1.12929920390144	    0.28693418227558	    0.32456650101815	    1.15849468180151	    0.08818841830365	    0.43192828180009	    0.98706457339618	    0.03713579941697	    0.45530311146052	    1.08627378549102	    0.02410745775253	    0.38621205929794	    1.28394589927523	    0.03560426329844	    0.43064166097228	    1.03991995793583	    0.78387259925038	    0.61503428456839	    1.10183055376509	    0.82432162436342	    0.63403641133004	    1.08907130050909	    0.70414232531248	    0.64857851125694	    1.14429236825154	    0.74631154023255	    0.66758299777503	    1.22698319086558	    0.41374145238578	    0.70130896416259	    1.27585137363539	    0.45467742668755	    0.74456165522455	    1.27175174507914	    0.35994541460595	    0.71756952189216	    1.31194759325160	    0.40724262944262	    0.75429831847068	    1.49477071077110	    0.26183975470053	    0.82148707595539	    1.42712301979026	    0.16846772727495	    0.68730787252601	    1.43187755389291	    0.17023886322471	    0.81034120553782	    1.56557777599819	    0.26821710320796	    0.92008462620564
90	   0.445	    1.08382463299498	    0.98636696297549	    0.54239520221534	    1.20326713914656	    0.97836967506258	    0.31605042142099	    0.95605433363827	    1.00321637368395	    0.34586632452106	    1.20511691164509	    0.72964974614776	    0.26405416043690	    1.13346858286395	    0.71554777449929	    0.24623202905816	    1.21130169841072	    0.63911912218452	    0.29265860257670	    1.13517232050632	    0.62934345308303	    0.27111780226988	    1.07405149012514	    0.36554848994944	    0.30704719187978	    1.14485588520858	    0.34301704727384	    0.32154415013948	    1.06485951539671	    0.29493955709476	    0.31196353826043	    1.12924710651298	    0.28693913035667	    0.32453883493221	    1.15849604828968	    0.08819244526368	    0.43192153294877	    0.98706954281432	    0.03713838256842	    0.45531399817100	    1.08626878583609	    0.02409453726456	    0.38622377312584	    1.28395696917637	    0.03561093746486	    0.43063009461610	    1.04033802469761	    0.78390958785862	    0.61517567813777	    1.10224100937500	    0.82439907591802	    0.63403446189842	    1.08962335925127	    0.70421472921571	    0.64864544542367	    1.14483993468539	    0.74642466759806	    0.66753857612844	    1.22777239869335	    0.41384884230720	    0.70120983936966	    1.27675938603105	    0.45472396970651	    0.74436580298312	    1.27250727593840	    0.36000640737576	    0.71741322165493	    1.31283130028497	    0.40731651783288	    0.75408986362157	    1.49497210374147	    0.26342914165809	    0.82069841755386	    1.42920001261146	    0.16748573452776	    0.68735932878550	    1.43322445732917	    0.17082611711959	    0.81040390940607	    1.56498164102512	    0.27206410088197	    0.91961076239348
91	   0.450	    1.08400830820627	    0.98638723737920	    0.54242779851686	    1.20317351284079	    0.97837979128853	    0.31594603242851	    0.95598124678661	    1.00318609432212	    0.34605987168293	    1.20495154741461	    0.72965263918923	    0.26394247279277	    1.13327321949923	    0.71555486315417	    0.24623164046232	    1.21116811519453	    0.63912178608836	    0.29253102801009	    1.13501160902071	    0.62935961161185	    0.27108011092785	    1.07395409399431	    0.36555834357288	    0.30705189025935	    1.14477006824083	    0.34303087720958	    0.32151002909587	    1.06477224291908	    0.29494274520575	    0.31197420698211	    1.12916795253908	    0.28695370408448	    0.32450870352710	    1.15849410254970	    0.08819192150952	    0.43191881534721	    0.98707330673825	    0.03713981492016	    0.45532884167418	    1.08626572612272	    0.02408800827492	    0.38623076356343	    1.28397155938054	    0.03561836714021	    0.43062057099969	    1.04077492090973	    0.78395448265742	    0.61534502152344	    1.10269187506007	    0.82447311413710	    0.63404234238945	    1.09019892660147	    0.70428139394616	    0.64870748553746	    1.14540946112152	    0.74652655375383	    0.66749077957345	    1.22853494742146	    0.41397281686744	    0.70127997647907	    1.27775579914990	    0.45480362218036	    0.74416664697813	    1.27321222818978	    0.36008228075545	    0.71743066744561	    1.31381464237823	    0.40747225507774	    0.75396108223789	    1.49527775543760	    0.26504231477742	    0.81981181036461	    1.43117803657015	    0.16649587035964	    0.68748388374368	    1.43467761097068	    0.17141562321357	    0.81051988438387	    1.56463357736729	    0.27590740803556	    0.91890969842250
92	   0.455	    1.08421764536217	    0.98641940977950	    0.54245746077065	    1.20307516557462	    0.97839024773656	    0.31583412701130	    0.95590896363396	    1.00316385632433	    0.34627039778967	    1.20476858794134	    0.72966048571506	    0.26382286849943	    1.13307384463673	    0.71558938443647	    0.24615717797868	    1.21101935591671	    0.63913053602775	    0.29239912838771	    1.13482671893062	    0.62938289325953	    0.27105166762630	    1.07383865701048	    0.36557220562588	    0.30706845180389	    1.14467737218162	    0.34303038259254	    0.32149205678380	    1.06466953281162	    0.29494845909711	    0.31199532264779	    1.12907257101720	    0.28696930249328	    0.32448471447816	    1.15848937823418	    0.08818476759328	    0.43191979721146	    0.98707408223358	    0.03714270409272	    0.45533881469913	    1.08626736144651	    0.02409285638282	    0.38622815513569	    1.28398806661202	    0.03562681290679	    0.43061214502001	    1.04123320048122	    0.78399289039007	    0.61551870094724	    1.10317809613388	    0.82454161863884	    0.63406501943669	    1.09078010241873	    0.70434109400965	    0.64876196415258	    1.14599604818881	    0.74660949861407	    0.66742782441863	    1.22927283110658	    0.41409387866522	    0.70150313915403	    1.27878328414301	    0.45492073388547	    0.74403119847033	    1.27385743308462	    0.36016143608225	    0.71761506576250	    1.31484769429489	    0.40770151104677	    0.75389283579917	    1.49560674200116	    0.26665184364992	    0.81881944526020	    1.43309493387623	    0.16546120233671	    0.68769880522587	    1.43628261810572	    0.17200214040394	    0.81065178355666	    1.56447528282852	    0.27983884032728	    0.91798112140691
93	   0.460	    1.08444063821303	    0.98646812309060	    0.54246803480768	    1.20297800269366	    0.97840163333592	    0.31571416644367	    0.95583846956418	    1.00314959287682	    0.34649934636889	    1.20458449730663	    0.72967075143411	    0.26370898161817	    1.13288863499414	    0.71563829341284	    0.24602786262097	    1.21086749075691	    0.63914150131931	    0.29227431927142	    1.13463925623468	    0.62940558616168	    0.27103549419164	    1.07371955596839	    0.36557860690293	    0.30710107836841	    1.14459298942664	    0.34300388681528	    0.32149509370130	    1.06455872294607	    0.29495110836514	    0.31203625249526	    1.12896924025307	    0.28697802814234	    0.32447436838015	    1.15848584474951	    0.08817705138365	    0.43192479175468	    0.98707112699570	    0.03714699276854	    0.45534836200798	    1.08627095205233	    0.02410518356650	    0.38622020681480	    1.28400471380922	    0.03563652868440	    0.43060292696267	    1.04171272313040	    0.78402412719339	    0.61567898444930	    1.10367786540950	    0.82460666809048	    0.63408210383886	    1.09135670818737	    0.70439685706457	    0.64880966172194	    1.14659466503583	    0.74668495397221	    0.66734983772864	    1.23001375679680	    0.41419036019777	    0.70179839963107	    1.27981156186455	    0.45504292577140	    0.74394957165344	    1.27448356844379	    0.36024516940734	    0.71788436229009	    1.31578993174814	    0.40790031024731	    0.75380365495930	    1.49590531961581	    0.26822870007853	    0.81774472107635	    1.43498078056382	    0.16439821161075	    0.68797480157314	    1.43797321828928	    0.17259950588665	    0.81079430738993	    1.56439697787373	    0.28383501694201	    0.91689094600686
94	   0.465	    1.08466150769920	    0.98651099446667	    0.54247701366450	    1.20288957667966	    0.97841108153186	    0.31559332364150	    0.95577370437540	    1.00314069156820	    0.34673189979741	    1.20441222586337	    0.72967934616311	    0.26360918535246	    1.13272171492467	    0.71567585529264	    0.24591716863571	    1.21072413526130	    0.63914949155427	    0.29216169881946	    1.13446397167406	    0.62941931141265	    0.27102626641777	    1.07360459281380	    0.36557514891933	    0.30714224296318	    1.14451710966184	    0.34297039415216	    0.32149665735734	    1.06444652292902	    0.29494523867931	    0.31209481946118	    1.12886966504807	    0.28697792493344	    0.32447304595174	    1.15848224709729	    0.08816949768257	    0.43193100613214	    0.98706768495765	    0.03714889044401	    0.45535835635392	    1.08627212805669	    0.02411061798511	    0.38621663948297	    1.28401751311808	    0.03564738446534	    0.43059148352724	    1.04220136499267	    0.78406098535680	    0.61582590303575	    1.10416887850497	    0.82468179259550	    0.63407642492389	    1.09193099245357	    0.70446925789464	    0.64885053136432	    1.14720580695394	    0.74677750891920	    0.66725322321200	    1.23075704953480	    0.41427630417422	    0.70208039095247	    1.28082207156981	    0.45517582984309	    0.74388659967837	    1.27515928975502	    0.36035177737999	    0.71812642533287	    1.31663921715554	    0.40800996238788	    0.75363026092614	    1.49618247870106	    0.26973859813205	    0.81665746797027	    1.43683955803361	    0.16340274202485	    0.68823504584938	    1.43961248388492	    0.17324296497380	    0.81093429186061	    1.56431444563066	    0.28771248106062	    0.91575877402979
95	   0.470	    1.08487108513237	    0.98651176555998	    0.54252558880475	    1.20281341485884	    0.97841902794288	    0.31548023670135	    0.95571653225098	    1.00313521642360	    0.34695386320543	    1.20425798140821	    0.72968628862094	    0.26352335453487	    1.13257062146487	    0.71569602061627	    0.24586501550489	    1.21059692775631	    0.63915016481071	    0.29205912992727	    1.13430568274050	    0.62941893426174	    0.27102291641700	    1.07349819441283	    0.36556600251627	    0.30718022521289	    1.14444865388417	    0.34295418702954	    0.32147830230746	    1.06434350654133	    0.29493336574782	    0.31215332352616	    1.12878484460719	    0.28697167750096	    0.32447265848734	    1.15847699531067	    0.08816141610436	    0.43193602694419	    0.98706561689533	    0.03714681581662	    0.45536689088401	    1.08627071339176	    0.02410991971229	    0.38621807233109	    1.28402268559661	    0.03565773540188	    0.43057886285963	    1.04268064246962	    0.78411855507815	    0.61597003269954	    1.10465425326352	    0.82478690032126	    0.63405638025285	    1.09251025550703	    0.70457158922629	    0.64888881055815	    1.14781970988348	    0.74690020217301	    0.66713536049094	    1.23150885120973	    0.41441638629883	    0.70227377837524	    1.28182029950727	    0.45533440620267	    0.74378775422467	    1.27588442684722	    0.36051288373673	    0.71827147267635	    1.31751174813736	    0.40806399403813	    0.75336145506852	    1.49645807709725	    0.27116215908751	    0.81562328922952	    1.43866686193819	    0.16256562315186	    0.68842917816320	    1.44113597848244	    0.17391352481692	    0.81100675969267	    1.56418212773553	    0.29129026141878	    0.91468614005225
